<?xml version="1.0" encoding="UTF-8"?>
<svg xmlns="http://www.w3.org/2000/svg" viewBox="0 0 360 780" font-family="Roboto, system-ui, sans-serif">
  <title>Mockup — Group invite (after scanning a peer's QR)</title>
  <desc>GroupInviteFragment after viewModel.decodeScannedLink succeeded. The state.scannedInvite block at the bottom of GroupInviteScreen.kt renders the invitation preview + Join/Discard.</desc>

  <!-- phone frame -->
  <rect x="0" y="0" width="360" height="780" rx="36" fill="#0F172A"/>
  <rect x="6" y="6" width="348" height="768" rx="32" fill="#F5F7FB"/>

  <!-- status bar -->
  <g font-size="11" fill="#FFFFFF">
    <rect x="6" y="6" width="348" height="32" fill="#0D47A1"/>
    <text x="22" y="28">9:41</text>
    <g transform="translate(290 14)">
      <rect x="0" y="6" width="14" height="10" rx="2" fill="none" stroke="#FFFFFF"/>
      <rect x="2" y="8" width="9" height="6" fill="#FFFFFF"/>
      <rect x="14" y="9" width="2" height="4" fill="#FFFFFF"/>
      <text x="22" y="14">100%</text>
    </g>
  </g>

  <!-- toolbar -->
  <rect x="6" y="38" width="348" height="56" fill="#1F6FEB"/>
  <text x="22" y="72" font-size="18" fill="#FFFFFF" font-weight="500">Group invite</text>

  <!-- content area -->
  <g transform="translate(20 110)">

    <!-- headlineSmall + cap -->
    <text x="160" y="22" text-anchor="middle" font-size="20" fill="#0F172A" font-weight="500">Group invite</text>
    <text x="160" y="40" text-anchor="middle" font-size="11" fill="#475569">
      Up to 16 members per group (creator included).
    </text>

    <!-- create-section is hidden because state.scannedInvite is present -->

    <!-- "Scan invite QR" still shown for re-scanning if needed -->
    <g transform="translate(0 68)">
      <rect x="0" y="0" width="320" height="44" rx="22" fill="none" stroke="#1F6FEB"/>
      <text x="160" y="28" text-anchor="middle" font-size="14" fill="#1F6FEB" font-weight="500">Scan invite QR</text>
    </g>

    <!-- pre-filled paste field -->
    <g transform="translate(0 124)">
      <rect x="0" y="0" width="320" height="56" rx="6" fill="#FFFFFF" stroke="#1F6FEB" stroke-width="1.5"/>
      <text x="14" y="22" font-size="11" fill="#1F6FEB">Or paste qubee://invite/...</text>
      <text x="14" y="42" font-size="12" fill="#0F172A" font-family="monospace">qubee://invite/eyJncm91cF9pZCI6IjAxMjM0NTY3OD…</text>
    </g>

    <!-- "Inspect link" button (enabled now) -->
    <g transform="translate(0 192)">
      <rect x="0" y="0" width="320" height="44" rx="22" fill="#1F6FEB"/>
      <text x="160" y="28" text-anchor="middle" font-size="14" fill="#FFFFFF" font-weight="500">Inspect link</text>
    </g>

    <!-- 16dp spacer, then the scanned invite preview card -->

    <!-- titleMedium "Invitation from <inviterName>" -->
    <text x="0" y="276" font-size="16" fill="#0F172A" font-weight="500">Invitation from Bob Vance</text>

    <!-- bodyMedium fields -->
    <text x="0" y="298" font-size="14" fill="#0F172A">Group: Project Atlas</text>
    <text x="0" y="318" font-size="14" fill="#0F172A">Members allowed: 16</text>

    <!-- bodySmall acceptance status (only renders if state.acceptanceResult != null) -->
    <text x="0" y="346" font-size="11" fill="#475569" opacity="0.0">
      Saved. A signed handshake was sent — the inviter's
    </text>

    <!-- Join button -->
    <g transform="translate(0 360)">
      <rect x="0" y="0" width="320" height="44" rx="22" fill="#1F6FEB"/>
      <text x="160" y="28" text-anchor="middle" font-size="14" fill="#FFFFFF" font-weight="500">Join Project Atlas</text>
    </g>

    <!-- Discard button -->
    <g transform="translate(0 412)">
      <rect x="0" y="0" width="320" height="44" rx="22" fill="none" stroke="#1F6FEB"/>
      <text x="160" y="28" text-anchor="middle" font-size="14" fill="#1F6FEB" font-weight="500">Discard</text>
    </g>

  </g>

  <!-- bottom navigation -->
  <rect x="6" y="710" width="348" height="64" fill="#FFFFFF" stroke="#E2E8F0"/>
  <g transform="translate(6 710)">
    <g transform="translate(40 12)">
      <path d="M 4 6 H 20 V 16 H 12 L 8 20 V 16 H 4 Z" fill="none" stroke="#475569" stroke-width="1.5"/>
      <text x="12" y="38" text-anchor="middle" font-size="10" fill="#475569">Chats</text>
    </g>
    <g transform="translate(160 12)">
      <circle cx="12" cy="9" r="4" fill="none" stroke="#475569" stroke-width="1.5"/>
      <path d="M 4 22 C 4 16 20 16 20 22" fill="none" stroke="#475569" stroke-width="1.5"/>
      <text x="12" y="38" text-anchor="middle" font-size="10" fill="#475569">Contacts</text>
    </g>
    <g transform="translate(280 12)">
      <circle cx="12" cy="12" r="3" fill="none" stroke="#475569" stroke-width="1.5"/>
      <circle cx="12" cy="12" r="9" fill="none" stroke="#475569" stroke-width="1.5"/>
      <text x="12" y="38" text-anchor="middle" font-size="10" fill="#475569">Settings</text>
    </g>
  </g>

  <text x="180" y="755" text-anchor="middle" font-size="9" fill="#94A3B8">— mockup —</text>
</svg>
